<mxfile host="65bd71144e">
    <diagram id="Z6pn2S-NzWUDgQahCCsV" name="Page-1">
        <mxGraphModel dx="2164" dy="1890" grid="1" gridSize="10" guides="1" tooltips="1" connect="1" arrows="1" fold="1" page="1" pageScale="1" pageWidth="850" pageHeight="1100" math="0" shadow="0">
            <root>
                <mxCell id="0"/>
                <mxCell id="1" parent="0"/>
                <mxCell id="2" value="User" style="shape=table;startSize=30;container=1;collapsible=1;childLayout=tableLayout;fixedRows=1;rowLines=0;fontStyle=1;align=center;resizeLast=1;" parent="1" vertex="1">
                    <mxGeometry x="200" y="60" width="280" height="260" as="geometry"/>
                </mxCell>
                <mxCell id="3" value="" style="shape=partialRectangle;collapsible=0;dropTarget=0;pointerEvents=0;fillColor=none;top=0;left=0;bottom=1;right=0;points=[[0,0.5],[1,0.5]];portConstraint=eastwest;" parent="2" vertex="1">
                    <mxGeometry y="30" width="280" height="30" as="geometry"/>
                </mxCell>
                <mxCell id="4" value="PK" style="shape=partialRectangle;connectable=0;fillColor=none;top=0;left=0;bottom=0;right=0;fontStyle=1;overflow=hidden;" parent="3" vertex="1">
                    <mxGeometry width="30" height="30" as="geometry">
                        <mxRectangle width="30" height="30" as="alternateBounds"/>
                    </mxGeometry>
                </mxCell>
                <mxCell id="5" value="UserID" style="shape=partialRectangle;connectable=0;fillColor=none;top=0;left=0;bottom=0;right=0;align=left;spacingLeft=6;fontStyle=5;overflow=hidden;" parent="3" vertex="1">
                    <mxGeometry x="30" width="150" height="30" as="geometry">
                        <mxRectangle width="150" height="30" as="alternateBounds"/>
                    </mxGeometry>
                </mxCell>
                <mxCell id="16" value="INT" style="shape=partialRectangle;connectable=0;fillColor=none;top=0;left=0;bottom=0;right=0;align=left;spacingLeft=6;fontStyle=5;overflow=hidden;" parent="3" vertex="1">
                    <mxGeometry x="180" width="100" height="30" as="geometry">
                        <mxRectangle width="100" height="30" as="alternateBounds"/>
                    </mxGeometry>
                </mxCell>
                <mxCell id="6" value="" style="shape=partialRectangle;collapsible=0;dropTarget=0;pointerEvents=0;fillColor=none;top=0;left=0;bottom=0;right=0;points=[[0,0.5],[1,0.5]];portConstraint=eastwest;" parent="2" vertex="1">
                    <mxGeometry y="60" width="280" height="30" as="geometry"/>
                </mxCell>
                <mxCell id="7" value="" style="shape=partialRectangle;connectable=0;fillColor=none;top=0;left=0;bottom=0;right=0;editable=1;overflow=hidden;" parent="6" vertex="1">
                    <mxGeometry width="30" height="30" as="geometry">
                        <mxRectangle width="30" height="30" as="alternateBounds"/>
                    </mxGeometry>
                </mxCell>
                <mxCell id="8" value="First_Name" style="shape=partialRectangle;connectable=0;fillColor=none;top=0;left=0;bottom=0;right=0;align=left;spacingLeft=6;overflow=hidden;" parent="6" vertex="1">
                    <mxGeometry x="30" width="150" height="30" as="geometry">
                        <mxRectangle width="150" height="30" as="alternateBounds"/>
                    </mxGeometry>
                </mxCell>
                <mxCell id="17" value="Varchar(255)" style="shape=partialRectangle;connectable=0;fillColor=none;top=0;left=0;bottom=0;right=0;align=left;spacingLeft=6;overflow=hidden;" parent="6" vertex="1">
                    <mxGeometry x="180" width="100" height="30" as="geometry">
                        <mxRectangle width="100" height="30" as="alternateBounds"/>
                    </mxGeometry>
                </mxCell>
                <mxCell id="9" value="" style="shape=partialRectangle;collapsible=0;dropTarget=0;pointerEvents=0;fillColor=none;top=0;left=0;bottom=0;right=0;points=[[0,0.5],[1,0.5]];portConstraint=eastwest;" parent="2" vertex="1">
                    <mxGeometry y="90" width="280" height="30" as="geometry"/>
                </mxCell>
                <mxCell id="10" value="" style="shape=partialRectangle;connectable=0;fillColor=none;top=0;left=0;bottom=0;right=0;editable=1;overflow=hidden;" parent="9" vertex="1">
                    <mxGeometry width="30" height="30" as="geometry">
                        <mxRectangle width="30" height="30" as="alternateBounds"/>
                    </mxGeometry>
                </mxCell>
                <mxCell id="11" value="Last_Name" style="shape=partialRectangle;connectable=0;fillColor=none;top=0;left=0;bottom=0;right=0;align=left;spacingLeft=6;overflow=hidden;" parent="9" vertex="1">
                    <mxGeometry x="30" width="150" height="30" as="geometry">
                        <mxRectangle width="150" height="30" as="alternateBounds"/>
                    </mxGeometry>
                </mxCell>
                <mxCell id="18" value="Varchar(255)" style="shape=partialRectangle;connectable=0;fillColor=none;top=0;left=0;bottom=0;right=0;align=left;spacingLeft=6;overflow=hidden;" parent="9" vertex="1">
                    <mxGeometry x="180" width="100" height="30" as="geometry">
                        <mxRectangle width="100" height="30" as="alternateBounds"/>
                    </mxGeometry>
                </mxCell>
                <mxCell id="12" value="" style="shape=partialRectangle;collapsible=0;dropTarget=0;pointerEvents=0;fillColor=none;top=0;left=0;bottom=0;right=0;points=[[0,0.5],[1,0.5]];portConstraint=eastwest;" parent="2" vertex="1">
                    <mxGeometry y="120" width="280" height="30" as="geometry"/>
                </mxCell>
                <mxCell id="13" value="" style="shape=partialRectangle;connectable=0;fillColor=none;top=0;left=0;bottom=0;right=0;editable=1;overflow=hidden;" parent="12" vertex="1">
                    <mxGeometry width="30" height="30" as="geometry">
                        <mxRectangle width="30" height="30" as="alternateBounds"/>
                    </mxGeometry>
                </mxCell>
                <mxCell id="14" value="Email" style="shape=partialRectangle;connectable=0;fillColor=none;top=0;left=0;bottom=0;right=0;align=left;spacingLeft=6;overflow=hidden;" parent="12" vertex="1">
                    <mxGeometry x="30" width="150" height="30" as="geometry">
                        <mxRectangle width="150" height="30" as="alternateBounds"/>
                    </mxGeometry>
                </mxCell>
                <mxCell id="19" value="Varchar(255)" style="shape=partialRectangle;connectable=0;fillColor=none;top=0;left=0;bottom=0;right=0;align=left;spacingLeft=6;overflow=hidden;" parent="12" vertex="1">
                    <mxGeometry x="180" width="100" height="30" as="geometry">
                        <mxRectangle width="100" height="30" as="alternateBounds"/>
                    </mxGeometry>
                </mxCell>
                <mxCell id="20" style="shape=partialRectangle;collapsible=0;dropTarget=0;pointerEvents=0;fillColor=none;top=0;left=0;bottom=0;right=0;points=[[0,0.5],[1,0.5]];portConstraint=eastwest;" parent="2" vertex="1">
                    <mxGeometry y="150" width="280" height="30" as="geometry"/>
                </mxCell>
                <mxCell id="21" style="shape=partialRectangle;connectable=0;fillColor=none;top=0;left=0;bottom=0;right=0;editable=1;overflow=hidden;" parent="20" vertex="1">
                    <mxGeometry width="30" height="30" as="geometry">
                        <mxRectangle width="30" height="30" as="alternateBounds"/>
                    </mxGeometry>
                </mxCell>
                <mxCell id="22" value="Username" style="shape=partialRectangle;connectable=0;fillColor=none;top=0;left=0;bottom=0;right=0;align=left;spacingLeft=6;overflow=hidden;" parent="20" vertex="1">
                    <mxGeometry x="30" width="150" height="30" as="geometry">
                        <mxRectangle width="150" height="30" as="alternateBounds"/>
                    </mxGeometry>
                </mxCell>
                <mxCell id="23" style="shape=partialRectangle;connectable=0;fillColor=none;top=0;left=0;bottom=0;right=0;align=left;spacingLeft=6;overflow=hidden;" parent="20" vertex="1">
                    <mxGeometry x="180" width="100" height="30" as="geometry">
                        <mxRectangle width="100" height="30" as="alternateBounds"/>
                    </mxGeometry>
                </mxCell>
                <mxCell id="24" style="shape=partialRectangle;collapsible=0;dropTarget=0;pointerEvents=0;fillColor=none;top=0;left=0;bottom=0;right=0;points=[[0,0.5],[1,0.5]];portConstraint=eastwest;" parent="2" vertex="1">
                    <mxGeometry y="180" width="280" height="40" as="geometry"/>
                </mxCell>
                <mxCell id="25" style="shape=partialRectangle;connectable=0;fillColor=none;top=0;left=0;bottom=0;right=0;editable=1;overflow=hidden;" parent="24" vertex="1">
                    <mxGeometry width="30" height="40" as="geometry">
                        <mxRectangle width="30" height="40" as="alternateBounds"/>
                    </mxGeometry>
                </mxCell>
                <mxCell id="26" value="Password" style="shape=partialRectangle;connectable=0;fillColor=none;top=0;left=0;bottom=0;right=0;align=left;spacingLeft=6;overflow=hidden;" parent="24" vertex="1">
                    <mxGeometry x="30" width="150" height="40" as="geometry">
                        <mxRectangle width="150" height="40" as="alternateBounds"/>
                    </mxGeometry>
                </mxCell>
                <mxCell id="27" style="shape=partialRectangle;connectable=0;fillColor=none;top=0;left=0;bottom=0;right=0;align=left;spacingLeft=6;overflow=hidden;" parent="24" vertex="1">
                    <mxGeometry x="180" width="100" height="40" as="geometry">
                        <mxRectangle width="100" height="40" as="alternateBounds"/>
                    </mxGeometry>
                </mxCell>
                <mxCell id="28" style="shape=partialRectangle;collapsible=0;dropTarget=0;pointerEvents=0;fillColor=none;top=0;left=0;bottom=0;right=0;points=[[0,0.5],[1,0.5]];portConstraint=eastwest;" parent="2" vertex="1">
                    <mxGeometry y="220" width="280" height="30" as="geometry"/>
                </mxCell>
                <mxCell id="29" value="FK" style="shape=partialRectangle;connectable=0;fillColor=none;top=0;left=0;bottom=0;right=0;editable=1;overflow=hidden;" parent="28" vertex="1">
                    <mxGeometry width="30" height="30" as="geometry">
                        <mxRectangle width="30" height="30" as="alternateBounds"/>
                    </mxGeometry>
                </mxCell>
                <mxCell id="30" value="RoleId" style="shape=partialRectangle;connectable=0;fillColor=none;top=0;left=0;bottom=0;right=0;align=left;spacingLeft=6;overflow=hidden;" parent="28" vertex="1">
                    <mxGeometry x="30" width="150" height="30" as="geometry">
                        <mxRectangle width="150" height="30" as="alternateBounds"/>
                    </mxGeometry>
                </mxCell>
                <mxCell id="31" style="shape=partialRectangle;connectable=0;fillColor=none;top=0;left=0;bottom=0;right=0;align=left;spacingLeft=6;overflow=hidden;" parent="28" vertex="1">
                    <mxGeometry x="180" width="100" height="30" as="geometry">
                        <mxRectangle width="100" height="30" as="alternateBounds"/>
                    </mxGeometry>
                </mxCell>
                <mxCell id="32" value="Game" style="shape=table;startSize=30;container=1;collapsible=1;childLayout=tableLayout;fixedRows=1;rowLines=0;fontStyle=1;align=center;resizeLast=1;" parent="1" vertex="1">
                    <mxGeometry x="640" y="60" width="280" height="290" as="geometry"/>
                </mxCell>
                <mxCell id="33" value="" style="shape=partialRectangle;collapsible=0;dropTarget=0;pointerEvents=0;fillColor=none;top=0;left=0;bottom=1;right=0;points=[[0,0.5],[1,0.5]];portConstraint=eastwest;" parent="32" vertex="1">
                    <mxGeometry y="30" width="280" height="40" as="geometry"/>
                </mxCell>
                <mxCell id="34" value="PK" style="shape=partialRectangle;connectable=0;fillColor=none;top=0;left=0;bottom=0;right=0;fontStyle=1;overflow=hidden;" parent="33" vertex="1">
                    <mxGeometry width="30" height="40" as="geometry">
                        <mxRectangle width="30" height="40" as="alternateBounds"/>
                    </mxGeometry>
                </mxCell>
                <mxCell id="35" value="GameID" style="shape=partialRectangle;connectable=0;fillColor=none;top=0;left=0;bottom=0;right=0;align=left;spacingLeft=6;fontStyle=5;overflow=hidden;" parent="33" vertex="1">
                    <mxGeometry x="30" width="150" height="40" as="geometry">
                        <mxRectangle width="150" height="40" as="alternateBounds"/>
                    </mxGeometry>
                </mxCell>
                <mxCell id="36" value="INT" style="shape=partialRectangle;connectable=0;fillColor=none;top=0;left=0;bottom=0;right=0;align=left;spacingLeft=6;fontStyle=5;overflow=hidden;" parent="33" vertex="1">
                    <mxGeometry x="180" width="100" height="40" as="geometry">
                        <mxRectangle width="100" height="40" as="alternateBounds"/>
                    </mxGeometry>
                </mxCell>
                <mxCell id="218" style="shape=partialRectangle;collapsible=0;dropTarget=0;pointerEvents=0;fillColor=none;top=0;left=0;bottom=0;right=0;points=[[0,0.5],[1,0.5]];portConstraint=eastwest;" parent="32" vertex="1">
                    <mxGeometry y="70" width="280" height="30" as="geometry"/>
                </mxCell>
                <mxCell id="219" style="shape=partialRectangle;connectable=0;fillColor=none;top=0;left=0;bottom=0;right=0;editable=1;overflow=hidden;" parent="218" vertex="1">
                    <mxGeometry width="30" height="30" as="geometry">
                        <mxRectangle width="30" height="30" as="alternateBounds"/>
                    </mxGeometry>
                </mxCell>
                <mxCell id="220" value="Game_Name" style="shape=partialRectangle;connectable=0;fillColor=none;top=0;left=0;bottom=0;right=0;align=left;spacingLeft=6;overflow=hidden;" parent="218" vertex="1">
                    <mxGeometry x="30" width="150" height="30" as="geometry">
                        <mxRectangle width="150" height="30" as="alternateBounds"/>
                    </mxGeometry>
                </mxCell>
                <mxCell id="221" style="shape=partialRectangle;connectable=0;fillColor=none;top=0;left=0;bottom=0;right=0;align=left;spacingLeft=6;overflow=hidden;" parent="218" vertex="1">
                    <mxGeometry x="180" width="100" height="30" as="geometry">
                        <mxRectangle width="100" height="30" as="alternateBounds"/>
                    </mxGeometry>
                </mxCell>
                <mxCell id="37" value="" style="shape=partialRectangle;collapsible=0;dropTarget=0;pointerEvents=0;fillColor=none;top=0;left=0;bottom=0;right=0;points=[[0,0.5],[1,0.5]];portConstraint=eastwest;" parent="32" vertex="1">
                    <mxGeometry y="100" width="280" height="30" as="geometry"/>
                </mxCell>
                <mxCell id="38" value="FK" style="shape=partialRectangle;connectable=0;fillColor=none;top=0;left=0;bottom=0;right=0;editable=1;overflow=hidden;" parent="37" vertex="1">
                    <mxGeometry width="30" height="30" as="geometry">
                        <mxRectangle width="30" height="30" as="alternateBounds"/>
                    </mxGeometry>
                </mxCell>
                <mxCell id="39" value="PlatformId" style="shape=partialRectangle;connectable=0;fillColor=none;top=0;left=0;bottom=0;right=0;align=left;spacingLeft=6;overflow=hidden;" parent="37" vertex="1">
                    <mxGeometry x="30" width="150" height="30" as="geometry">
                        <mxRectangle width="150" height="30" as="alternateBounds"/>
                    </mxGeometry>
                </mxCell>
                <mxCell id="40" value="" style="shape=partialRectangle;connectable=0;fillColor=none;top=0;left=0;bottom=0;right=0;align=left;spacingLeft=6;overflow=hidden;" parent="37" vertex="1">
                    <mxGeometry x="180" width="100" height="30" as="geometry">
                        <mxRectangle width="100" height="30" as="alternateBounds"/>
                    </mxGeometry>
                </mxCell>
                <mxCell id="41" value="" style="shape=partialRectangle;collapsible=0;dropTarget=0;pointerEvents=0;fillColor=none;top=0;left=0;bottom=0;right=0;points=[[0,0.5],[1,0.5]];portConstraint=eastwest;" parent="32" vertex="1">
                    <mxGeometry y="130" width="280" height="30" as="geometry"/>
                </mxCell>
                <mxCell id="42" value="FK" style="shape=partialRectangle;connectable=0;fillColor=none;top=0;left=0;bottom=0;right=0;editable=1;overflow=hidden;" parent="41" vertex="1">
                    <mxGeometry width="30" height="30" as="geometry">
                        <mxRectangle width="30" height="30" as="alternateBounds"/>
                    </mxGeometry>
                </mxCell>
                <mxCell id="43" value="GenreId" style="shape=partialRectangle;connectable=0;fillColor=none;top=0;left=0;bottom=0;right=0;align=left;spacingLeft=6;overflow=hidden;" parent="41" vertex="1">
                    <mxGeometry x="30" width="150" height="30" as="geometry">
                        <mxRectangle width="150" height="30" as="alternateBounds"/>
                    </mxGeometry>
                </mxCell>
                <mxCell id="44" value="" style="shape=partialRectangle;connectable=0;fillColor=none;top=0;left=0;bottom=0;right=0;align=left;spacingLeft=6;overflow=hidden;" parent="41" vertex="1">
                    <mxGeometry x="180" width="100" height="30" as="geometry">
                        <mxRectangle width="100" height="30" as="alternateBounds"/>
                    </mxGeometry>
                </mxCell>
                <mxCell id="45" value="" style="shape=partialRectangle;collapsible=0;dropTarget=0;pointerEvents=0;fillColor=none;top=0;left=0;bottom=0;right=0;points=[[0,0.5],[1,0.5]];portConstraint=eastwest;" parent="32" vertex="1">
                    <mxGeometry y="160" width="280" height="30" as="geometry"/>
                </mxCell>
                <mxCell id="46" value="FK" style="shape=partialRectangle;connectable=0;fillColor=none;top=0;left=0;bottom=0;right=0;editable=1;overflow=hidden;" parent="45" vertex="1">
                    <mxGeometry width="30" height="30" as="geometry">
                        <mxRectangle width="30" height="30" as="alternateBounds"/>
                    </mxGeometry>
                </mxCell>
                <mxCell id="47" value="ReviewId" style="shape=partialRectangle;connectable=0;fillColor=none;top=0;left=0;bottom=0;right=0;align=left;spacingLeft=6;overflow=hidden;" parent="45" vertex="1">
                    <mxGeometry x="30" width="150" height="30" as="geometry">
                        <mxRectangle width="150" height="30" as="alternateBounds"/>
                    </mxGeometry>
                </mxCell>
                <mxCell id="48" value="" style="shape=partialRectangle;connectable=0;fillColor=none;top=0;left=0;bottom=0;right=0;align=left;spacingLeft=6;overflow=hidden;" parent="45" vertex="1">
                    <mxGeometry x="180" width="100" height="30" as="geometry">
                        <mxRectangle width="100" height="30" as="alternateBounds"/>
                    </mxGeometry>
                </mxCell>
                <mxCell id="49" style="shape=partialRectangle;collapsible=0;dropTarget=0;pointerEvents=0;fillColor=none;top=0;left=0;bottom=0;right=0;points=[[0,0.5],[1,0.5]];portConstraint=eastwest;" parent="32" vertex="1">
                    <mxGeometry y="190" width="280" height="20" as="geometry"/>
                </mxCell>
                <mxCell id="50" style="shape=partialRectangle;connectable=0;fillColor=none;top=0;left=0;bottom=0;right=0;editable=1;overflow=hidden;" parent="49" vertex="1">
                    <mxGeometry width="30" height="20" as="geometry">
                        <mxRectangle width="30" height="20" as="alternateBounds"/>
                    </mxGeometry>
                </mxCell>
                <mxCell id="51" value="SimilarGames" style="shape=partialRectangle;connectable=0;fillColor=none;top=0;left=0;bottom=0;right=0;align=left;spacingLeft=6;overflow=hidden;" parent="49" vertex="1">
                    <mxGeometry x="30" width="150" height="20" as="geometry">
                        <mxRectangle width="150" height="20" as="alternateBounds"/>
                    </mxGeometry>
                </mxCell>
                <mxCell id="52" style="shape=partialRectangle;connectable=0;fillColor=none;top=0;left=0;bottom=0;right=0;align=left;spacingLeft=6;overflow=hidden;" parent="49" vertex="1">
                    <mxGeometry x="180" width="100" height="20" as="geometry">
                        <mxRectangle width="100" height="20" as="alternateBounds"/>
                    </mxGeometry>
                </mxCell>
                <mxCell id="53" style="shape=partialRectangle;collapsible=0;dropTarget=0;pointerEvents=0;fillColor=none;top=0;left=0;bottom=0;right=0;points=[[0,0.5],[1,0.5]];portConstraint=eastwest;" parent="32" vertex="1">
                    <mxGeometry y="210" width="280" height="40" as="geometry"/>
                </mxCell>
                <mxCell id="54" style="shape=partialRectangle;connectable=0;fillColor=none;top=0;left=0;bottom=0;right=0;editable=1;overflow=hidden;" parent="53" vertex="1">
                    <mxGeometry width="30" height="40" as="geometry">
                        <mxRectangle width="30" height="40" as="alternateBounds"/>
                    </mxGeometry>
                </mxCell>
                <mxCell id="55" value="" style="shape=partialRectangle;connectable=0;fillColor=none;top=0;left=0;bottom=0;right=0;align=left;spacingLeft=6;overflow=hidden;" parent="53" vertex="1">
                    <mxGeometry x="30" width="150" height="40" as="geometry">
                        <mxRectangle width="150" height="40" as="alternateBounds"/>
                    </mxGeometry>
                </mxCell>
                <mxCell id="56" style="shape=partialRectangle;connectable=0;fillColor=none;top=0;left=0;bottom=0;right=0;align=left;spacingLeft=6;overflow=hidden;" parent="53" vertex="1">
                    <mxGeometry x="180" width="100" height="40" as="geometry">
                        <mxRectangle width="100" height="40" as="alternateBounds"/>
                    </mxGeometry>
                </mxCell>
                <mxCell id="57" style="shape=partialRectangle;collapsible=0;dropTarget=0;pointerEvents=0;fillColor=none;top=0;left=0;bottom=0;right=0;points=[[0,0.5],[1,0.5]];portConstraint=eastwest;" parent="32" vertex="1">
                    <mxGeometry y="250" width="280" height="30" as="geometry"/>
                </mxCell>
                <mxCell id="58" style="shape=partialRectangle;connectable=0;fillColor=none;top=0;left=0;bottom=0;right=0;editable=1;overflow=hidden;" parent="57" vertex="1">
                    <mxGeometry width="30" height="30" as="geometry">
                        <mxRectangle width="30" height="30" as="alternateBounds"/>
                    </mxGeometry>
                </mxCell>
                <mxCell id="59" style="shape=partialRectangle;connectable=0;fillColor=none;top=0;left=0;bottom=0;right=0;align=left;spacingLeft=6;overflow=hidden;" parent="57" vertex="1">
                    <mxGeometry x="30" width="150" height="30" as="geometry">
                        <mxRectangle width="150" height="30" as="alternateBounds"/>
                    </mxGeometry>
                </mxCell>
                <mxCell id="60" style="shape=partialRectangle;connectable=0;fillColor=none;top=0;left=0;bottom=0;right=0;align=left;spacingLeft=6;overflow=hidden;" parent="57" vertex="1">
                    <mxGeometry x="180" width="100" height="30" as="geometry">
                        <mxRectangle width="100" height="30" as="alternateBounds"/>
                    </mxGeometry>
                </mxCell>
                <mxCell id="227" style="edgeStyle=none;html=1;exitX=1;exitY=0.5;exitDx=0;exitDy=0;" parent="32" source="49" edge="1">
                    <mxGeometry relative="1" as="geometry">
                        <mxPoint x="280" y="50" as="targetPoint"/>
                        <Array as="points">
                            <mxPoint x="330" y="200"/>
                            <mxPoint x="330" y="50"/>
                        </Array>
                    </mxGeometry>
                </mxCell>
                <mxCell id="61" value="Platform" style="shape=table;startSize=30;container=1;collapsible=1;childLayout=tableLayout;fixedRows=1;rowLines=0;fontStyle=1;align=center;resizeLast=1;" parent="1" vertex="1">
                    <mxGeometry x="670" y="470" width="280" height="270" as="geometry"/>
                </mxCell>
                <mxCell id="62" value="" style="shape=partialRectangle;collapsible=0;dropTarget=0;pointerEvents=0;fillColor=none;top=0;left=0;bottom=1;right=0;points=[[0,0.5],[1,0.5]];portConstraint=eastwest;" parent="61" vertex="1">
                    <mxGeometry y="30" width="280" height="40" as="geometry"/>
                </mxCell>
                <mxCell id="63" value="PK" style="shape=partialRectangle;connectable=0;fillColor=none;top=0;left=0;bottom=0;right=0;fontStyle=1;overflow=hidden;" parent="62" vertex="1">
                    <mxGeometry width="30" height="40" as="geometry">
                        <mxRectangle width="30" height="40" as="alternateBounds"/>
                    </mxGeometry>
                </mxCell>
                <mxCell id="64" value="PlatformId" style="shape=partialRectangle;connectable=0;fillColor=none;top=0;left=0;bottom=0;right=0;align=left;spacingLeft=6;fontStyle=5;overflow=hidden;" parent="62" vertex="1">
                    <mxGeometry x="30" width="150" height="40" as="geometry">
                        <mxRectangle width="150" height="40" as="alternateBounds"/>
                    </mxGeometry>
                </mxCell>
                <mxCell id="65" value="INT" style="shape=partialRectangle;connectable=0;fillColor=none;top=0;left=0;bottom=0;right=0;align=left;spacingLeft=6;fontStyle=5;overflow=hidden;" parent="62" vertex="1">
                    <mxGeometry x="180" width="100" height="40" as="geometry">
                        <mxRectangle width="100" height="40" as="alternateBounds"/>
                    </mxGeometry>
                </mxCell>
                <mxCell id="66" value="" style="shape=partialRectangle;collapsible=0;dropTarget=0;pointerEvents=0;fillColor=none;top=0;left=0;bottom=0;right=0;points=[[0,0.5],[1,0.5]];portConstraint=eastwest;" parent="61" vertex="1">
                    <mxGeometry y="70" width="280" height="30" as="geometry"/>
                </mxCell>
                <mxCell id="67" value="" style="shape=partialRectangle;connectable=0;fillColor=none;top=0;left=0;bottom=0;right=0;editable=1;overflow=hidden;" parent="66" vertex="1">
                    <mxGeometry width="30" height="30" as="geometry">
                        <mxRectangle width="30" height="30" as="alternateBounds"/>
                    </mxGeometry>
                </mxCell>
                <mxCell id="68" value="" style="shape=partialRectangle;connectable=0;fillColor=none;top=0;left=0;bottom=0;right=0;align=left;spacingLeft=6;overflow=hidden;" parent="66" vertex="1">
                    <mxGeometry x="30" width="150" height="30" as="geometry">
                        <mxRectangle width="150" height="30" as="alternateBounds"/>
                    </mxGeometry>
                </mxCell>
                <mxCell id="69" value="" style="shape=partialRectangle;connectable=0;fillColor=none;top=0;left=0;bottom=0;right=0;align=left;spacingLeft=6;overflow=hidden;" parent="66" vertex="1">
                    <mxGeometry x="180" width="100" height="30" as="geometry">
                        <mxRectangle width="100" height="30" as="alternateBounds"/>
                    </mxGeometry>
                </mxCell>
                <mxCell id="70" value="" style="shape=partialRectangle;collapsible=0;dropTarget=0;pointerEvents=0;fillColor=none;top=0;left=0;bottom=0;right=0;points=[[0,0.5],[1,0.5]];portConstraint=eastwest;" parent="61" vertex="1">
                    <mxGeometry y="100" width="280" height="30" as="geometry"/>
                </mxCell>
                <mxCell id="71" value="" style="shape=partialRectangle;connectable=0;fillColor=none;top=0;left=0;bottom=0;right=0;editable=1;overflow=hidden;" parent="70" vertex="1">
                    <mxGeometry width="30" height="30" as="geometry">
                        <mxRectangle width="30" height="30" as="alternateBounds"/>
                    </mxGeometry>
                </mxCell>
                <mxCell id="72" value="" style="shape=partialRectangle;connectable=0;fillColor=none;top=0;left=0;bottom=0;right=0;align=left;spacingLeft=6;overflow=hidden;" parent="70" vertex="1">
                    <mxGeometry x="30" width="150" height="30" as="geometry">
                        <mxRectangle width="150" height="30" as="alternateBounds"/>
                    </mxGeometry>
                </mxCell>
                <mxCell id="73" value="" style="shape=partialRectangle;connectable=0;fillColor=none;top=0;left=0;bottom=0;right=0;align=left;spacingLeft=6;overflow=hidden;" parent="70" vertex="1">
                    <mxGeometry x="180" width="100" height="30" as="geometry">
                        <mxRectangle width="100" height="30" as="alternateBounds"/>
                    </mxGeometry>
                </mxCell>
                <mxCell id="74" value="" style="shape=partialRectangle;collapsible=0;dropTarget=0;pointerEvents=0;fillColor=none;top=0;left=0;bottom=0;right=0;points=[[0,0.5],[1,0.5]];portConstraint=eastwest;" parent="61" vertex="1">
                    <mxGeometry y="130" width="280" height="30" as="geometry"/>
                </mxCell>
                <mxCell id="75" value="" style="shape=partialRectangle;connectable=0;fillColor=none;top=0;left=0;bottom=0;right=0;editable=1;overflow=hidden;" parent="74" vertex="1">
                    <mxGeometry width="30" height="30" as="geometry">
                        <mxRectangle width="30" height="30" as="alternateBounds"/>
                    </mxGeometry>
                </mxCell>
                <mxCell id="76" value="" style="shape=partialRectangle;connectable=0;fillColor=none;top=0;left=0;bottom=0;right=0;align=left;spacingLeft=6;overflow=hidden;" parent="74" vertex="1">
                    <mxGeometry x="30" width="150" height="30" as="geometry">
                        <mxRectangle width="150" height="30" as="alternateBounds"/>
                    </mxGeometry>
                </mxCell>
                <mxCell id="77" value="" style="shape=partialRectangle;connectable=0;fillColor=none;top=0;left=0;bottom=0;right=0;align=left;spacingLeft=6;overflow=hidden;" parent="74" vertex="1">
                    <mxGeometry x="180" width="100" height="30" as="geometry">
                        <mxRectangle width="100" height="30" as="alternateBounds"/>
                    </mxGeometry>
                </mxCell>
                <mxCell id="78" style="shape=partialRectangle;collapsible=0;dropTarget=0;pointerEvents=0;fillColor=none;top=0;left=0;bottom=0;right=0;points=[[0,0.5],[1,0.5]];portConstraint=eastwest;" parent="61" vertex="1">
                    <mxGeometry y="160" width="280" height="30" as="geometry"/>
                </mxCell>
                <mxCell id="79" style="shape=partialRectangle;connectable=0;fillColor=none;top=0;left=0;bottom=0;right=0;editable=1;overflow=hidden;" parent="78" vertex="1">
                    <mxGeometry width="30" height="30" as="geometry">
                        <mxRectangle width="30" height="30" as="alternateBounds"/>
                    </mxGeometry>
                </mxCell>
                <mxCell id="80" value="" style="shape=partialRectangle;connectable=0;fillColor=none;top=0;left=0;bottom=0;right=0;align=left;spacingLeft=6;overflow=hidden;" parent="78" vertex="1">
                    <mxGeometry x="30" width="150" height="30" as="geometry">
                        <mxRectangle width="150" height="30" as="alternateBounds"/>
                    </mxGeometry>
                </mxCell>
                <mxCell id="81" style="shape=partialRectangle;connectable=0;fillColor=none;top=0;left=0;bottom=0;right=0;align=left;spacingLeft=6;overflow=hidden;" parent="78" vertex="1">
                    <mxGeometry x="180" width="100" height="30" as="geometry">
                        <mxRectangle width="100" height="30" as="alternateBounds"/>
                    </mxGeometry>
                </mxCell>
                <mxCell id="82" style="shape=partialRectangle;collapsible=0;dropTarget=0;pointerEvents=0;fillColor=none;top=0;left=0;bottom=0;right=0;points=[[0,0.5],[1,0.5]];portConstraint=eastwest;" parent="61" vertex="1">
                    <mxGeometry y="190" width="280" height="40" as="geometry"/>
                </mxCell>
                <mxCell id="83" style="shape=partialRectangle;connectable=0;fillColor=none;top=0;left=0;bottom=0;right=0;editable=1;overflow=hidden;" parent="82" vertex="1">
                    <mxGeometry width="30" height="40" as="geometry">
                        <mxRectangle width="30" height="40" as="alternateBounds"/>
                    </mxGeometry>
                </mxCell>
                <mxCell id="84" value="" style="shape=partialRectangle;connectable=0;fillColor=none;top=0;left=0;bottom=0;right=0;align=left;spacingLeft=6;overflow=hidden;" parent="82" vertex="1">
                    <mxGeometry x="30" width="150" height="40" as="geometry">
                        <mxRectangle width="150" height="40" as="alternateBounds"/>
                    </mxGeometry>
                </mxCell>
                <mxCell id="85" style="shape=partialRectangle;connectable=0;fillColor=none;top=0;left=0;bottom=0;right=0;align=left;spacingLeft=6;overflow=hidden;" parent="82" vertex="1">
                    <mxGeometry x="180" width="100" height="40" as="geometry">
                        <mxRectangle width="100" height="40" as="alternateBounds"/>
                    </mxGeometry>
                </mxCell>
                <mxCell id="86" style="shape=partialRectangle;collapsible=0;dropTarget=0;pointerEvents=0;fillColor=none;top=0;left=0;bottom=0;right=0;points=[[0,0.5],[1,0.5]];portConstraint=eastwest;" parent="61" vertex="1">
                    <mxGeometry y="230" width="280" height="30" as="geometry"/>
                </mxCell>
                <mxCell id="87" style="shape=partialRectangle;connectable=0;fillColor=none;top=0;left=0;bottom=0;right=0;editable=1;overflow=hidden;" parent="86" vertex="1">
                    <mxGeometry width="30" height="30" as="geometry">
                        <mxRectangle width="30" height="30" as="alternateBounds"/>
                    </mxGeometry>
                </mxCell>
                <mxCell id="88" style="shape=partialRectangle;connectable=0;fillColor=none;top=0;left=0;bottom=0;right=0;align=left;spacingLeft=6;overflow=hidden;" parent="86" vertex="1">
                    <mxGeometry x="30" width="150" height="30" as="geometry">
                        <mxRectangle width="150" height="30" as="alternateBounds"/>
                    </mxGeometry>
                </mxCell>
                <mxCell id="89" style="shape=partialRectangle;connectable=0;fillColor=none;top=0;left=0;bottom=0;right=0;align=left;spacingLeft=6;overflow=hidden;" parent="86" vertex="1">
                    <mxGeometry x="180" width="100" height="30" as="geometry">
                        <mxRectangle width="100" height="30" as="alternateBounds"/>
                    </mxGeometry>
                </mxCell>
                <mxCell id="90" value="Reviews" style="shape=table;startSize=30;container=1;collapsible=1;childLayout=tableLayout;fixedRows=1;rowLines=0;fontStyle=1;align=center;resizeLast=1;" parent="1" vertex="1">
                    <mxGeometry x="230" y="450" width="280" height="270" as="geometry"/>
                </mxCell>
                <mxCell id="91" value="" style="shape=partialRectangle;collapsible=0;dropTarget=0;pointerEvents=0;fillColor=none;top=0;left=0;bottom=1;right=0;points=[[0,0.5],[1,0.5]];portConstraint=eastwest;" parent="90" vertex="1">
                    <mxGeometry y="30" width="280" height="40" as="geometry"/>
                </mxCell>
                <mxCell id="92" value="PK" style="shape=partialRectangle;connectable=0;fillColor=none;top=0;left=0;bottom=0;right=0;fontStyle=1;overflow=hidden;" parent="91" vertex="1">
                    <mxGeometry width="30" height="40" as="geometry">
                        <mxRectangle width="30" height="40" as="alternateBounds"/>
                    </mxGeometry>
                </mxCell>
                <mxCell id="93" value="ReviewId" style="shape=partialRectangle;connectable=0;fillColor=none;top=0;left=0;bottom=0;right=0;align=left;spacingLeft=6;fontStyle=5;overflow=hidden;" parent="91" vertex="1">
                    <mxGeometry x="30" width="150" height="40" as="geometry">
                        <mxRectangle width="150" height="40" as="alternateBounds"/>
                    </mxGeometry>
                </mxCell>
                <mxCell id="94" value="INT" style="shape=partialRectangle;connectable=0;fillColor=none;top=0;left=0;bottom=0;right=0;align=left;spacingLeft=6;fontStyle=5;overflow=hidden;" parent="91" vertex="1">
                    <mxGeometry x="180" width="100" height="40" as="geometry">
                        <mxRectangle width="100" height="40" as="alternateBounds"/>
                    </mxGeometry>
                </mxCell>
                <mxCell id="95" value="" style="shape=partialRectangle;collapsible=0;dropTarget=0;pointerEvents=0;fillColor=none;top=0;left=0;bottom=0;right=0;points=[[0,0.5],[1,0.5]];portConstraint=eastwest;" parent="90" vertex="1">
                    <mxGeometry y="70" width="280" height="30" as="geometry"/>
                </mxCell>
                <mxCell id="96" value="" style="shape=partialRectangle;connectable=0;fillColor=none;top=0;left=0;bottom=0;right=0;editable=1;overflow=hidden;" parent="95" vertex="1">
                    <mxGeometry width="30" height="30" as="geometry">
                        <mxRectangle width="30" height="30" as="alternateBounds"/>
                    </mxGeometry>
                </mxCell>
                <mxCell id="97" value="" style="shape=partialRectangle;connectable=0;fillColor=none;top=0;left=0;bottom=0;right=0;align=left;spacingLeft=6;overflow=hidden;" parent="95" vertex="1">
                    <mxGeometry x="30" width="150" height="30" as="geometry">
                        <mxRectangle width="150" height="30" as="alternateBounds"/>
                    </mxGeometry>
                </mxCell>
                <mxCell id="98" value="" style="shape=partialRectangle;connectable=0;fillColor=none;top=0;left=0;bottom=0;right=0;align=left;spacingLeft=6;overflow=hidden;" parent="95" vertex="1">
                    <mxGeometry x="180" width="100" height="30" as="geometry">
                        <mxRectangle width="100" height="30" as="alternateBounds"/>
                    </mxGeometry>
                </mxCell>
                <mxCell id="99" value="" style="shape=partialRectangle;collapsible=0;dropTarget=0;pointerEvents=0;fillColor=none;top=0;left=0;bottom=0;right=0;points=[[0,0.5],[1,0.5]];portConstraint=eastwest;" parent="90" vertex="1">
                    <mxGeometry y="100" width="280" height="30" as="geometry"/>
                </mxCell>
                <mxCell id="100" value="" style="shape=partialRectangle;connectable=0;fillColor=none;top=0;left=0;bottom=0;right=0;editable=1;overflow=hidden;" parent="99" vertex="1">
                    <mxGeometry width="30" height="30" as="geometry">
                        <mxRectangle width="30" height="30" as="alternateBounds"/>
                    </mxGeometry>
                </mxCell>
                <mxCell id="101" value="" style="shape=partialRectangle;connectable=0;fillColor=none;top=0;left=0;bottom=0;right=0;align=left;spacingLeft=6;overflow=hidden;" parent="99" vertex="1">
                    <mxGeometry x="30" width="150" height="30" as="geometry">
                        <mxRectangle width="150" height="30" as="alternateBounds"/>
                    </mxGeometry>
                </mxCell>
                <mxCell id="102" value="" style="shape=partialRectangle;connectable=0;fillColor=none;top=0;left=0;bottom=0;right=0;align=left;spacingLeft=6;overflow=hidden;" parent="99" vertex="1">
                    <mxGeometry x="180" width="100" height="30" as="geometry">
                        <mxRectangle width="100" height="30" as="alternateBounds"/>
                    </mxGeometry>
                </mxCell>
                <mxCell id="103" value="" style="shape=partialRectangle;collapsible=0;dropTarget=0;pointerEvents=0;fillColor=none;top=0;left=0;bottom=0;right=0;points=[[0,0.5],[1,0.5]];portConstraint=eastwest;" parent="90" vertex="1">
                    <mxGeometry y="130" width="280" height="30" as="geometry"/>
                </mxCell>
                <mxCell id="104" value="" style="shape=partialRectangle;connectable=0;fillColor=none;top=0;left=0;bottom=0;right=0;editable=1;overflow=hidden;" parent="103" vertex="1">
                    <mxGeometry width="30" height="30" as="geometry">
                        <mxRectangle width="30" height="30" as="alternateBounds"/>
                    </mxGeometry>
                </mxCell>
                <mxCell id="105" value="" style="shape=partialRectangle;connectable=0;fillColor=none;top=0;left=0;bottom=0;right=0;align=left;spacingLeft=6;overflow=hidden;" parent="103" vertex="1">
                    <mxGeometry x="30" width="150" height="30" as="geometry">
                        <mxRectangle width="150" height="30" as="alternateBounds"/>
                    </mxGeometry>
                </mxCell>
                <mxCell id="106" value="" style="shape=partialRectangle;connectable=0;fillColor=none;top=0;left=0;bottom=0;right=0;align=left;spacingLeft=6;overflow=hidden;" parent="103" vertex="1">
                    <mxGeometry x="180" width="100" height="30" as="geometry">
                        <mxRectangle width="100" height="30" as="alternateBounds"/>
                    </mxGeometry>
                </mxCell>
                <mxCell id="107" style="shape=partialRectangle;collapsible=0;dropTarget=0;pointerEvents=0;fillColor=none;top=0;left=0;bottom=0;right=0;points=[[0,0.5],[1,0.5]];portConstraint=eastwest;" parent="90" vertex="1">
                    <mxGeometry y="160" width="280" height="30" as="geometry"/>
                </mxCell>
                <mxCell id="108" style="shape=partialRectangle;connectable=0;fillColor=none;top=0;left=0;bottom=0;right=0;editable=1;overflow=hidden;" parent="107" vertex="1">
                    <mxGeometry width="30" height="30" as="geometry">
                        <mxRectangle width="30" height="30" as="alternateBounds"/>
                    </mxGeometry>
                </mxCell>
                <mxCell id="109" value="" style="shape=partialRectangle;connectable=0;fillColor=none;top=0;left=0;bottom=0;right=0;align=left;spacingLeft=6;overflow=hidden;" parent="107" vertex="1">
                    <mxGeometry x="30" width="150" height="30" as="geometry">
                        <mxRectangle width="150" height="30" as="alternateBounds"/>
                    </mxGeometry>
                </mxCell>
                <mxCell id="110" style="shape=partialRectangle;connectable=0;fillColor=none;top=0;left=0;bottom=0;right=0;align=left;spacingLeft=6;overflow=hidden;" parent="107" vertex="1">
                    <mxGeometry x="180" width="100" height="30" as="geometry">
                        <mxRectangle width="100" height="30" as="alternateBounds"/>
                    </mxGeometry>
                </mxCell>
                <mxCell id="111" style="shape=partialRectangle;collapsible=0;dropTarget=0;pointerEvents=0;fillColor=none;top=0;left=0;bottom=0;right=0;points=[[0,0.5],[1,0.5]];portConstraint=eastwest;" parent="90" vertex="1">
                    <mxGeometry y="190" width="280" height="40" as="geometry"/>
                </mxCell>
                <mxCell id="112" style="shape=partialRectangle;connectable=0;fillColor=none;top=0;left=0;bottom=0;right=0;editable=1;overflow=hidden;" parent="111" vertex="1">
                    <mxGeometry width="30" height="40" as="geometry">
                        <mxRectangle width="30" height="40" as="alternateBounds"/>
                    </mxGeometry>
                </mxCell>
                <mxCell id="113" value="" style="shape=partialRectangle;connectable=0;fillColor=none;top=0;left=0;bottom=0;right=0;align=left;spacingLeft=6;overflow=hidden;" parent="111" vertex="1">
                    <mxGeometry x="30" width="150" height="40" as="geometry">
                        <mxRectangle width="150" height="40" as="alternateBounds"/>
                    </mxGeometry>
                </mxCell>
                <mxCell id="114" style="shape=partialRectangle;connectable=0;fillColor=none;top=0;left=0;bottom=0;right=0;align=left;spacingLeft=6;overflow=hidden;" parent="111" vertex="1">
                    <mxGeometry x="180" width="100" height="40" as="geometry">
                        <mxRectangle width="100" height="40" as="alternateBounds"/>
                    </mxGeometry>
                </mxCell>
                <mxCell id="115" style="shape=partialRectangle;collapsible=0;dropTarget=0;pointerEvents=0;fillColor=none;top=0;left=0;bottom=0;right=0;points=[[0,0.5],[1,0.5]];portConstraint=eastwest;" parent="90" vertex="1">
                    <mxGeometry y="230" width="280" height="30" as="geometry"/>
                </mxCell>
                <mxCell id="116" style="shape=partialRectangle;connectable=0;fillColor=none;top=0;left=0;bottom=0;right=0;editable=1;overflow=hidden;" parent="115" vertex="1">
                    <mxGeometry width="30" height="30" as="geometry">
                        <mxRectangle width="30" height="30" as="alternateBounds"/>
                    </mxGeometry>
                </mxCell>
                <mxCell id="117" style="shape=partialRectangle;connectable=0;fillColor=none;top=0;left=0;bottom=0;right=0;align=left;spacingLeft=6;overflow=hidden;" parent="115" vertex="1">
                    <mxGeometry x="30" width="150" height="30" as="geometry">
                        <mxRectangle width="150" height="30" as="alternateBounds"/>
                    </mxGeometry>
                </mxCell>
                <mxCell id="118" style="shape=partialRectangle;connectable=0;fillColor=none;top=0;left=0;bottom=0;right=0;align=left;spacingLeft=6;overflow=hidden;" parent="115" vertex="1">
                    <mxGeometry x="180" width="100" height="30" as="geometry">
                        <mxRectangle width="100" height="30" as="alternateBounds"/>
                    </mxGeometry>
                </mxCell>
                <mxCell id="119" value="&lt;h1&gt;User Story1&lt;/h1&gt;&lt;div&gt;I AM A Game enthusiast&lt;/div&gt;&lt;div&gt;SO I WANT TO Post reviews on my favorite games.&lt;/div&gt;&lt;div&gt;SO I CAN encourage other people to play games with me&lt;/div&gt;" style="text;html=1;strokeColor=none;fillColor=none;spacing=5;spacingTop=-20;whiteSpace=wrap;overflow=hidden;rounded=0;" parent="1" vertex="1">
                    <mxGeometry x="-210" y="-950" width="330" height="120" as="geometry"/>
                </mxCell>
                <mxCell id="120" value="&lt;h1&gt;User Story2&lt;/h1&gt;&lt;div&gt;I AM A Game developer&lt;/div&gt;&lt;div&gt;SO I WANT TO read reviews and see feedback on my games&lt;/div&gt;&lt;div&gt;SO I CAN develop better games or fix issues with my current games.&lt;/div&gt;" style="text;html=1;strokeColor=none;fillColor=none;spacing=5;spacingTop=-20;whiteSpace=wrap;overflow=hidden;rounded=0;" parent="1" vertex="1">
                    <mxGeometry x="-200" y="-830" width="380" height="120" as="geometry"/>
                </mxCell>
                <mxCell id="121" value="Role" style="shape=table;startSize=30;container=1;collapsible=1;childLayout=tableLayout;fixedRows=1;rowLines=0;fontStyle=1;align=center;resizeLast=1;" parent="1" vertex="1">
                    <mxGeometry x="-170" y="60" width="280" height="270" as="geometry"/>
                </mxCell>
                <mxCell id="122" value="" style="shape=partialRectangle;collapsible=0;dropTarget=0;pointerEvents=0;fillColor=none;top=0;left=0;bottom=1;right=0;points=[[0,0.5],[1,0.5]];portConstraint=eastwest;" parent="121" vertex="1">
                    <mxGeometry y="30" width="280" height="40" as="geometry"/>
                </mxCell>
                <mxCell id="123" value="PK" style="shape=partialRectangle;connectable=0;fillColor=none;top=0;left=0;bottom=0;right=0;fontStyle=1;overflow=hidden;" parent="122" vertex="1">
                    <mxGeometry width="30" height="40" as="geometry">
                        <mxRectangle width="30" height="40" as="alternateBounds"/>
                    </mxGeometry>
                </mxCell>
                <mxCell id="124" value="RoleId" style="shape=partialRectangle;connectable=0;fillColor=none;top=0;left=0;bottom=0;right=0;align=left;spacingLeft=6;fontStyle=5;overflow=hidden;" parent="122" vertex="1">
                    <mxGeometry x="30" width="150" height="40" as="geometry">
                        <mxRectangle width="150" height="40" as="alternateBounds"/>
                    </mxGeometry>
                </mxCell>
                <mxCell id="125" value="INT" style="shape=partialRectangle;connectable=0;fillColor=none;top=0;left=0;bottom=0;right=0;align=left;spacingLeft=6;fontStyle=5;overflow=hidden;" parent="122" vertex="1">
                    <mxGeometry x="180" width="100" height="40" as="geometry">
                        <mxRectangle width="100" height="40" as="alternateBounds"/>
                    </mxGeometry>
                </mxCell>
                <mxCell id="126" value="" style="shape=partialRectangle;collapsible=0;dropTarget=0;pointerEvents=0;fillColor=none;top=0;left=0;bottom=0;right=0;points=[[0,0.5],[1,0.5]];portConstraint=eastwest;" parent="121" vertex="1">
                    <mxGeometry y="70" width="280" height="30" as="geometry"/>
                </mxCell>
                <mxCell id="127" value="" style="shape=partialRectangle;connectable=0;fillColor=none;top=0;left=0;bottom=0;right=0;editable=1;overflow=hidden;" parent="126" vertex="1">
                    <mxGeometry width="30" height="30" as="geometry">
                        <mxRectangle width="30" height="30" as="alternateBounds"/>
                    </mxGeometry>
                </mxCell>
                <mxCell id="128" value="Name" style="shape=partialRectangle;connectable=0;fillColor=none;top=0;left=0;bottom=0;right=0;align=left;spacingLeft=6;overflow=hidden;" parent="126" vertex="1">
                    <mxGeometry x="30" width="150" height="30" as="geometry">
                        <mxRectangle width="150" height="30" as="alternateBounds"/>
                    </mxGeometry>
                </mxCell>
                <mxCell id="129" value="" style="shape=partialRectangle;connectable=0;fillColor=none;top=0;left=0;bottom=0;right=0;align=left;spacingLeft=6;overflow=hidden;" parent="126" vertex="1">
                    <mxGeometry x="180" width="100" height="30" as="geometry">
                        <mxRectangle width="100" height="30" as="alternateBounds"/>
                    </mxGeometry>
                </mxCell>
                <mxCell id="130" value="" style="shape=partialRectangle;collapsible=0;dropTarget=0;pointerEvents=0;fillColor=none;top=0;left=0;bottom=0;right=0;points=[[0,0.5],[1,0.5]];portConstraint=eastwest;" parent="121" vertex="1">
                    <mxGeometry y="100" width="280" height="30" as="geometry"/>
                </mxCell>
                <mxCell id="131" value="" style="shape=partialRectangle;connectable=0;fillColor=none;top=0;left=0;bottom=0;right=0;editable=1;overflow=hidden;" parent="130" vertex="1">
                    <mxGeometry width="30" height="30" as="geometry">
                        <mxRectangle width="30" height="30" as="alternateBounds"/>
                    </mxGeometry>
                </mxCell>
                <mxCell id="132" value="" style="shape=partialRectangle;connectable=0;fillColor=none;top=0;left=0;bottom=0;right=0;align=left;spacingLeft=6;overflow=hidden;" parent="130" vertex="1">
                    <mxGeometry x="30" width="150" height="30" as="geometry">
                        <mxRectangle width="150" height="30" as="alternateBounds"/>
                    </mxGeometry>
                </mxCell>
                <mxCell id="133" value="" style="shape=partialRectangle;connectable=0;fillColor=none;top=0;left=0;bottom=0;right=0;align=left;spacingLeft=6;overflow=hidden;" parent="130" vertex="1">
                    <mxGeometry x="180" width="100" height="30" as="geometry">
                        <mxRectangle width="100" height="30" as="alternateBounds"/>
                    </mxGeometry>
                </mxCell>
                <mxCell id="134" value="" style="shape=partialRectangle;collapsible=0;dropTarget=0;pointerEvents=0;fillColor=none;top=0;left=0;bottom=0;right=0;points=[[0,0.5],[1,0.5]];portConstraint=eastwest;" parent="121" vertex="1">
                    <mxGeometry y="130" width="280" height="30" as="geometry"/>
                </mxCell>
                <mxCell id="135" value="" style="shape=partialRectangle;connectable=0;fillColor=none;top=0;left=0;bottom=0;right=0;editable=1;overflow=hidden;" parent="134" vertex="1">
                    <mxGeometry width="30" height="30" as="geometry">
                        <mxRectangle width="30" height="30" as="alternateBounds"/>
                    </mxGeometry>
                </mxCell>
                <mxCell id="136" value="" style="shape=partialRectangle;connectable=0;fillColor=none;top=0;left=0;bottom=0;right=0;align=left;spacingLeft=6;overflow=hidden;" parent="134" vertex="1">
                    <mxGeometry x="30" width="150" height="30" as="geometry">
                        <mxRectangle width="150" height="30" as="alternateBounds"/>
                    </mxGeometry>
                </mxCell>
                <mxCell id="137" value="" style="shape=partialRectangle;connectable=0;fillColor=none;top=0;left=0;bottom=0;right=0;align=left;spacingLeft=6;overflow=hidden;" parent="134" vertex="1">
                    <mxGeometry x="180" width="100" height="30" as="geometry">
                        <mxRectangle width="100" height="30" as="alternateBounds"/>
                    </mxGeometry>
                </mxCell>
                <mxCell id="138" style="shape=partialRectangle;collapsible=0;dropTarget=0;pointerEvents=0;fillColor=none;top=0;left=0;bottom=0;right=0;points=[[0,0.5],[1,0.5]];portConstraint=eastwest;" parent="121" vertex="1">
                    <mxGeometry y="160" width="280" height="30" as="geometry"/>
                </mxCell>
                <mxCell id="139" style="shape=partialRectangle;connectable=0;fillColor=none;top=0;left=0;bottom=0;right=0;editable=1;overflow=hidden;" parent="138" vertex="1">
                    <mxGeometry width="30" height="30" as="geometry">
                        <mxRectangle width="30" height="30" as="alternateBounds"/>
                    </mxGeometry>
                </mxCell>
                <mxCell id="140" value="" style="shape=partialRectangle;connectable=0;fillColor=none;top=0;left=0;bottom=0;right=0;align=left;spacingLeft=6;overflow=hidden;" parent="138" vertex="1">
                    <mxGeometry x="30" width="150" height="30" as="geometry">
                        <mxRectangle width="150" height="30" as="alternateBounds"/>
                    </mxGeometry>
                </mxCell>
                <mxCell id="141" style="shape=partialRectangle;connectable=0;fillColor=none;top=0;left=0;bottom=0;right=0;align=left;spacingLeft=6;overflow=hidden;" parent="138" vertex="1">
                    <mxGeometry x="180" width="100" height="30" as="geometry">
                        <mxRectangle width="100" height="30" as="alternateBounds"/>
                    </mxGeometry>
                </mxCell>
                <mxCell id="142" style="shape=partialRectangle;collapsible=0;dropTarget=0;pointerEvents=0;fillColor=none;top=0;left=0;bottom=0;right=0;points=[[0,0.5],[1,0.5]];portConstraint=eastwest;" parent="121" vertex="1">
                    <mxGeometry y="190" width="280" height="40" as="geometry"/>
                </mxCell>
                <mxCell id="143" style="shape=partialRectangle;connectable=0;fillColor=none;top=0;left=0;bottom=0;right=0;editable=1;overflow=hidden;" parent="142" vertex="1">
                    <mxGeometry width="30" height="40" as="geometry">
                        <mxRectangle width="30" height="40" as="alternateBounds"/>
                    </mxGeometry>
                </mxCell>
                <mxCell id="144" value="" style="shape=partialRectangle;connectable=0;fillColor=none;top=0;left=0;bottom=0;right=0;align=left;spacingLeft=6;overflow=hidden;" parent="142" vertex="1">
                    <mxGeometry x="30" width="150" height="40" as="geometry">
                        <mxRectangle width="150" height="40" as="alternateBounds"/>
                    </mxGeometry>
                </mxCell>
                <mxCell id="145" style="shape=partialRectangle;connectable=0;fillColor=none;top=0;left=0;bottom=0;right=0;align=left;spacingLeft=6;overflow=hidden;" parent="142" vertex="1">
                    <mxGeometry x="180" width="100" height="40" as="geometry">
                        <mxRectangle width="100" height="40" as="alternateBounds"/>
                    </mxGeometry>
                </mxCell>
                <mxCell id="146" style="shape=partialRectangle;collapsible=0;dropTarget=0;pointerEvents=0;fillColor=none;top=0;left=0;bottom=0;right=0;points=[[0,0.5],[1,0.5]];portConstraint=eastwest;" parent="121" vertex="1">
                    <mxGeometry y="230" width="280" height="30" as="geometry"/>
                </mxCell>
                <mxCell id="147" style="shape=partialRectangle;connectable=0;fillColor=none;top=0;left=0;bottom=0;right=0;editable=1;overflow=hidden;" parent="146" vertex="1">
                    <mxGeometry width="30" height="30" as="geometry">
                        <mxRectangle width="30" height="30" as="alternateBounds"/>
                    </mxGeometry>
                </mxCell>
                <mxCell id="148" style="shape=partialRectangle;connectable=0;fillColor=none;top=0;left=0;bottom=0;right=0;align=left;spacingLeft=6;overflow=hidden;" parent="146" vertex="1">
                    <mxGeometry x="30" width="150" height="30" as="geometry">
                        <mxRectangle width="150" height="30" as="alternateBounds"/>
                    </mxGeometry>
                </mxCell>
                <mxCell id="149" style="shape=partialRectangle;connectable=0;fillColor=none;top=0;left=0;bottom=0;right=0;align=left;spacingLeft=6;overflow=hidden;" parent="146" vertex="1">
                    <mxGeometry x="180" width="100" height="30" as="geometry">
                        <mxRectangle width="100" height="30" as="alternateBounds"/>
                    </mxGeometry>
                </mxCell>
                <mxCell id="150" style="edgeStyle=none;html=1;exitX=0;exitY=0.5;exitDx=0;exitDy=0;entryX=1;entryY=0.5;entryDx=0;entryDy=0;" parent="1" source="28" target="122" edge="1">
                    <mxGeometry relative="1" as="geometry">
                        <Array as="points">
                            <mxPoint x="170" y="295"/>
                            <mxPoint x="170" y="110"/>
                        </Array>
                    </mxGeometry>
                </mxCell>
                <mxCell id="151" value="&lt;h1&gt;User Story3&lt;/h1&gt;&lt;div&gt;I AM A Game enthusiast who is seeking game recommendations&lt;/div&gt;&lt;div&gt;SO I WANT TO see reviews of games&lt;/div&gt;&lt;div&gt;SO I CAN determine which game I should play next.&lt;/div&gt;" style="text;html=1;strokeColor=none;fillColor=none;spacing=5;spacingTop=-20;whiteSpace=wrap;overflow=hidden;rounded=0;" parent="1" vertex="1">
                    <mxGeometry x="-210" y="-710" width="400" height="120" as="geometry"/>
                </mxCell>
                <mxCell id="152" value="&lt;h1&gt;User Story4&lt;/h1&gt;&lt;div&gt;I AM A Family or friend who is looking to gift a game&amp;nbsp;&lt;/div&gt;&lt;div&gt;SO I WANT TO see reviews of games or which games are most popular&lt;/div&gt;&lt;div&gt;SO I CAN gift the best game to my loved one.&lt;/div&gt;" style="text;html=1;strokeColor=none;fillColor=none;spacing=5;spacingTop=-20;whiteSpace=wrap;overflow=hidden;rounded=0;" parent="1" vertex="1">
                    <mxGeometry x="210" y="-950" width="400" height="120" as="geometry"/>
                </mxCell>
                <mxCell id="153" value="Wishlist" style="shape=table;startSize=30;container=1;collapsible=1;childLayout=tableLayout;fixedRows=1;rowLines=0;fontStyle=1;align=center;resizeLast=1;" parent="1" vertex="1">
                    <mxGeometry x="170" y="-310" width="280" height="270" as="geometry"/>
                </mxCell>
                <mxCell id="154" value="" style="shape=partialRectangle;collapsible=0;dropTarget=0;pointerEvents=0;fillColor=none;top=0;left=0;bottom=1;right=0;points=[[0,0.5],[1,0.5]];portConstraint=eastwest;" parent="153" vertex="1">
                    <mxGeometry y="30" width="280" height="40" as="geometry"/>
                </mxCell>
                <mxCell id="155" value="PK" style="shape=partialRectangle;connectable=0;fillColor=none;top=0;left=0;bottom=0;right=0;fontStyle=1;overflow=hidden;" parent="154" vertex="1">
                    <mxGeometry width="30" height="40" as="geometry">
                        <mxRectangle width="30" height="40" as="alternateBounds"/>
                    </mxGeometry>
                </mxCell>
                <mxCell id="156" value="WishlistId" style="shape=partialRectangle;connectable=0;fillColor=none;top=0;left=0;bottom=0;right=0;align=left;spacingLeft=6;fontStyle=5;overflow=hidden;" parent="154" vertex="1">
                    <mxGeometry x="30" width="150" height="40" as="geometry">
                        <mxRectangle width="150" height="40" as="alternateBounds"/>
                    </mxGeometry>
                </mxCell>
                <mxCell id="157" value="INT" style="shape=partialRectangle;connectable=0;fillColor=none;top=0;left=0;bottom=0;right=0;align=left;spacingLeft=6;fontStyle=5;overflow=hidden;" parent="154" vertex="1">
                    <mxGeometry x="180" width="100" height="40" as="geometry">
                        <mxRectangle width="100" height="40" as="alternateBounds"/>
                    </mxGeometry>
                </mxCell>
                <mxCell id="158" value="" style="shape=partialRectangle;collapsible=0;dropTarget=0;pointerEvents=0;fillColor=none;top=0;left=0;bottom=0;right=0;points=[[0,0.5],[1,0.5]];portConstraint=eastwest;" parent="153" vertex="1">
                    <mxGeometry y="70" width="280" height="30" as="geometry"/>
                </mxCell>
                <mxCell id="159" value="FK" style="shape=partialRectangle;connectable=0;fillColor=none;top=0;left=0;bottom=0;right=0;editable=1;overflow=hidden;" parent="158" vertex="1">
                    <mxGeometry width="30" height="30" as="geometry">
                        <mxRectangle width="30" height="30" as="alternateBounds"/>
                    </mxGeometry>
                </mxCell>
                <mxCell id="160" value="UserId" style="shape=partialRectangle;connectable=0;fillColor=none;top=0;left=0;bottom=0;right=0;align=left;spacingLeft=6;overflow=hidden;" parent="158" vertex="1">
                    <mxGeometry x="30" width="150" height="30" as="geometry">
                        <mxRectangle width="150" height="30" as="alternateBounds"/>
                    </mxGeometry>
                </mxCell>
                <mxCell id="161" value="" style="shape=partialRectangle;connectable=0;fillColor=none;top=0;left=0;bottom=0;right=0;align=left;spacingLeft=6;overflow=hidden;" parent="158" vertex="1">
                    <mxGeometry x="180" width="100" height="30" as="geometry">
                        <mxRectangle width="100" height="30" as="alternateBounds"/>
                    </mxGeometry>
                </mxCell>
                <mxCell id="162" value="" style="shape=partialRectangle;collapsible=0;dropTarget=0;pointerEvents=0;fillColor=none;top=0;left=0;bottom=0;right=0;points=[[0,0.5],[1,0.5]];portConstraint=eastwest;" parent="153" vertex="1">
                    <mxGeometry y="100" width="280" height="40" as="geometry"/>
                </mxCell>
                <mxCell id="163" value="FK" style="shape=partialRectangle;connectable=0;fillColor=none;top=0;left=0;bottom=0;right=0;editable=1;overflow=hidden;" parent="162" vertex="1">
                    <mxGeometry width="30" height="40" as="geometry">
                        <mxRectangle width="30" height="40" as="alternateBounds"/>
                    </mxGeometry>
                </mxCell>
                <mxCell id="164" value="GameId" style="shape=partialRectangle;connectable=0;fillColor=none;top=0;left=0;bottom=0;right=0;align=left;spacingLeft=6;overflow=hidden;" parent="162" vertex="1">
                    <mxGeometry x="30" width="150" height="40" as="geometry">
                        <mxRectangle width="150" height="40" as="alternateBounds"/>
                    </mxGeometry>
                </mxCell>
                <mxCell id="165" value="" style="shape=partialRectangle;connectable=0;fillColor=none;top=0;left=0;bottom=0;right=0;align=left;spacingLeft=6;overflow=hidden;" parent="162" vertex="1">
                    <mxGeometry x="180" width="100" height="40" as="geometry">
                        <mxRectangle width="100" height="40" as="alternateBounds"/>
                    </mxGeometry>
                </mxCell>
                <mxCell id="166" value="" style="shape=partialRectangle;collapsible=0;dropTarget=0;pointerEvents=0;fillColor=none;top=0;left=0;bottom=0;right=0;points=[[0,0.5],[1,0.5]];portConstraint=eastwest;" parent="153" vertex="1">
                    <mxGeometry y="140" width="280" height="30" as="geometry"/>
                </mxCell>
                <mxCell id="167" value="" style="shape=partialRectangle;connectable=0;fillColor=none;top=0;left=0;bottom=0;right=0;editable=1;overflow=hidden;" parent="166" vertex="1">
                    <mxGeometry width="30" height="30" as="geometry">
                        <mxRectangle width="30" height="30" as="alternateBounds"/>
                    </mxGeometry>
                </mxCell>
                <mxCell id="168" value="" style="shape=partialRectangle;connectable=0;fillColor=none;top=0;left=0;bottom=0;right=0;align=left;spacingLeft=6;overflow=hidden;" parent="166" vertex="1">
                    <mxGeometry x="30" width="150" height="30" as="geometry">
                        <mxRectangle width="150" height="30" as="alternateBounds"/>
                    </mxGeometry>
                </mxCell>
                <mxCell id="169" value="" style="shape=partialRectangle;connectable=0;fillColor=none;top=0;left=0;bottom=0;right=0;align=left;spacingLeft=6;overflow=hidden;" parent="166" vertex="1">
                    <mxGeometry x="180" width="100" height="30" as="geometry">
                        <mxRectangle width="100" height="30" as="alternateBounds"/>
                    </mxGeometry>
                </mxCell>
                <mxCell id="170" style="shape=partialRectangle;collapsible=0;dropTarget=0;pointerEvents=0;fillColor=none;top=0;left=0;bottom=0;right=0;points=[[0,0.5],[1,0.5]];portConstraint=eastwest;" parent="153" vertex="1">
                    <mxGeometry y="170" width="280" height="30" as="geometry"/>
                </mxCell>
                <mxCell id="171" style="shape=partialRectangle;connectable=0;fillColor=none;top=0;left=0;bottom=0;right=0;editable=1;overflow=hidden;" parent="170" vertex="1">
                    <mxGeometry width="30" height="30" as="geometry">
                        <mxRectangle width="30" height="30" as="alternateBounds"/>
                    </mxGeometry>
                </mxCell>
                <mxCell id="172" value="" style="shape=partialRectangle;connectable=0;fillColor=none;top=0;left=0;bottom=0;right=0;align=left;spacingLeft=6;overflow=hidden;" parent="170" vertex="1">
                    <mxGeometry x="30" width="150" height="30" as="geometry">
                        <mxRectangle width="150" height="30" as="alternateBounds"/>
                    </mxGeometry>
                </mxCell>
                <mxCell id="173" style="shape=partialRectangle;connectable=0;fillColor=none;top=0;left=0;bottom=0;right=0;align=left;spacingLeft=6;overflow=hidden;" parent="170" vertex="1">
                    <mxGeometry x="180" width="100" height="30" as="geometry">
                        <mxRectangle width="100" height="30" as="alternateBounds"/>
                    </mxGeometry>
                </mxCell>
                <mxCell id="174" style="shape=partialRectangle;collapsible=0;dropTarget=0;pointerEvents=0;fillColor=none;top=0;left=0;bottom=0;right=0;points=[[0,0.5],[1,0.5]];portConstraint=eastwest;" parent="153" vertex="1">
                    <mxGeometry y="200" width="280" height="40" as="geometry"/>
                </mxCell>
                <mxCell id="175" style="shape=partialRectangle;connectable=0;fillColor=none;top=0;left=0;bottom=0;right=0;editable=1;overflow=hidden;" parent="174" vertex="1">
                    <mxGeometry width="30" height="40" as="geometry">
                        <mxRectangle width="30" height="40" as="alternateBounds"/>
                    </mxGeometry>
                </mxCell>
                <mxCell id="176" value="" style="shape=partialRectangle;connectable=0;fillColor=none;top=0;left=0;bottom=0;right=0;align=left;spacingLeft=6;overflow=hidden;" parent="174" vertex="1">
                    <mxGeometry x="30" width="150" height="40" as="geometry">
                        <mxRectangle width="150" height="40" as="alternateBounds"/>
                    </mxGeometry>
                </mxCell>
                <mxCell id="177" style="shape=partialRectangle;connectable=0;fillColor=none;top=0;left=0;bottom=0;right=0;align=left;spacingLeft=6;overflow=hidden;" parent="174" vertex="1">
                    <mxGeometry x="180" width="100" height="40" as="geometry">
                        <mxRectangle width="100" height="40" as="alternateBounds"/>
                    </mxGeometry>
                </mxCell>
                <mxCell id="178" style="shape=partialRectangle;collapsible=0;dropTarget=0;pointerEvents=0;fillColor=none;top=0;left=0;bottom=0;right=0;points=[[0,0.5],[1,0.5]];portConstraint=eastwest;" parent="153" vertex="1">
                    <mxGeometry y="240" width="280" height="30" as="geometry"/>
                </mxCell>
                <mxCell id="179" style="shape=partialRectangle;connectable=0;fillColor=none;top=0;left=0;bottom=0;right=0;editable=1;overflow=hidden;" parent="178" vertex="1">
                    <mxGeometry width="30" height="30" as="geometry">
                        <mxRectangle width="30" height="30" as="alternateBounds"/>
                    </mxGeometry>
                </mxCell>
                <mxCell id="180" style="shape=partialRectangle;connectable=0;fillColor=none;top=0;left=0;bottom=0;right=0;align=left;spacingLeft=6;overflow=hidden;" parent="178" vertex="1">
                    <mxGeometry x="30" width="150" height="30" as="geometry">
                        <mxRectangle width="150" height="30" as="alternateBounds"/>
                    </mxGeometry>
                </mxCell>
                <mxCell id="181" style="shape=partialRectangle;connectable=0;fillColor=none;top=0;left=0;bottom=0;right=0;align=left;spacingLeft=6;overflow=hidden;" parent="178" vertex="1">
                    <mxGeometry x="180" width="100" height="30" as="geometry">
                        <mxRectangle width="100" height="30" as="alternateBounds"/>
                    </mxGeometry>
                </mxCell>
                <mxCell id="182" value="&lt;h1&gt;User Story5&lt;/h1&gt;&lt;div&gt;I AM AN Online streamer&lt;/div&gt;&lt;div&gt;SO I WANT TO see which games are most popular&lt;/div&gt;&lt;div&gt;SO I CAN play those games live for an audience&lt;/div&gt;" style="text;html=1;strokeColor=none;fillColor=none;spacing=5;spacingTop=-20;whiteSpace=wrap;overflow=hidden;rounded=0;" parent="1" vertex="1">
                    <mxGeometry x="210" y="-820" width="400" height="120" as="geometry"/>
                </mxCell>
                <mxCell id="183" style="edgeStyle=none;html=1;exitX=0;exitY=0.5;exitDx=0;exitDy=0;entryX=0;entryY=0.5;entryDx=0;entryDy=0;" parent="1" source="3" target="158" edge="1">
                    <mxGeometry relative="1" as="geometry">
                        <Array as="points">
                            <mxPoint x="140" y="90"/>
                            <mxPoint x="140" y="80"/>
                            <mxPoint x="140" y="-225"/>
                        </Array>
                    </mxGeometry>
                </mxCell>
                <mxCell id="184" style="edgeStyle=none;html=1;exitX=0;exitY=0.5;exitDx=0;exitDy=0;entryX=1;entryY=0.5;entryDx=0;entryDy=0;" parent="1" source="33" target="162" edge="1">
                    <mxGeometry relative="1" as="geometry">
                        <Array as="points">
                            <mxPoint x="560" y="110"/>
                            <mxPoint x="560" y="-190"/>
                        </Array>
                    </mxGeometry>
                </mxCell>
                <mxCell id="185" style="edgeStyle=none;html=1;exitX=0;exitY=0.5;exitDx=0;exitDy=0;entryX=0;entryY=0.5;entryDx=0;entryDy=0;" parent="1" source="62" target="37" edge="1">
                    <mxGeometry relative="1" as="geometry">
                        <Array as="points">
                            <mxPoint x="600" y="520"/>
                            <mxPoint x="600" y="175"/>
                        </Array>
                    </mxGeometry>
                </mxCell>
                <mxCell id="186" value="&lt;h1&gt;User Story6&lt;/h1&gt;&lt;div&gt;I AM A VP of Marketing&lt;/div&gt;&lt;div&gt;SO I WANT TO see which games are most popular&lt;/div&gt;&lt;div&gt;SO I CAN decide which games we should sell&lt;/div&gt;" style="text;html=1;strokeColor=none;fillColor=none;spacing=5;spacingTop=-20;whiteSpace=wrap;overflow=hidden;rounded=0;" parent="1" vertex="1">
                    <mxGeometry x="210" y="-700" width="400" height="120" as="geometry"/>
                </mxCell>
                <mxCell id="187" value="Genre" style="shape=table;startSize=30;container=1;collapsible=1;childLayout=tableLayout;fixedRows=1;rowLines=0;fontStyle=1;align=center;resizeLast=1;" parent="1" vertex="1">
                    <mxGeometry x="1040" y="55" width="280" height="270" as="geometry"/>
                </mxCell>
                <mxCell id="188" value="" style="shape=partialRectangle;collapsible=0;dropTarget=0;pointerEvents=0;fillColor=none;top=0;left=0;bottom=1;right=0;points=[[0,0.5],[1,0.5]];portConstraint=eastwest;" parent="187" vertex="1">
                    <mxGeometry y="30" width="280" height="40" as="geometry"/>
                </mxCell>
                <mxCell id="189" value="PK" style="shape=partialRectangle;connectable=0;fillColor=none;top=0;left=0;bottom=0;right=0;fontStyle=1;overflow=hidden;" parent="188" vertex="1">
                    <mxGeometry width="30" height="40" as="geometry">
                        <mxRectangle width="30" height="40" as="alternateBounds"/>
                    </mxGeometry>
                </mxCell>
                <mxCell id="190" value="GenreId" style="shape=partialRectangle;connectable=0;fillColor=none;top=0;left=0;bottom=0;right=0;align=left;spacingLeft=6;fontStyle=5;overflow=hidden;" parent="188" vertex="1">
                    <mxGeometry x="30" width="150" height="40" as="geometry">
                        <mxRectangle width="150" height="40" as="alternateBounds"/>
                    </mxGeometry>
                </mxCell>
                <mxCell id="191" value="INT" style="shape=partialRectangle;connectable=0;fillColor=none;top=0;left=0;bottom=0;right=0;align=left;spacingLeft=6;fontStyle=5;overflow=hidden;" parent="188" vertex="1">
                    <mxGeometry x="180" width="100" height="40" as="geometry">
                        <mxRectangle width="100" height="40" as="alternateBounds"/>
                    </mxGeometry>
                </mxCell>
                <mxCell id="192" value="" style="shape=partialRectangle;collapsible=0;dropTarget=0;pointerEvents=0;fillColor=none;top=0;left=0;bottom=0;right=0;points=[[0,0.5],[1,0.5]];portConstraint=eastwest;" parent="187" vertex="1">
                    <mxGeometry y="70" width="280" height="30" as="geometry"/>
                </mxCell>
                <mxCell id="193" value="" style="shape=partialRectangle;connectable=0;fillColor=none;top=0;left=0;bottom=0;right=0;editable=1;overflow=hidden;" parent="192" vertex="1">
                    <mxGeometry width="30" height="30" as="geometry">
                        <mxRectangle width="30" height="30" as="alternateBounds"/>
                    </mxGeometry>
                </mxCell>
                <mxCell id="194" value="Genre_Name" style="shape=partialRectangle;connectable=0;fillColor=none;top=0;left=0;bottom=0;right=0;align=left;spacingLeft=6;overflow=hidden;" parent="192" vertex="1">
                    <mxGeometry x="30" width="150" height="30" as="geometry">
                        <mxRectangle width="150" height="30" as="alternateBounds"/>
                    </mxGeometry>
                </mxCell>
                <mxCell id="195" value="" style="shape=partialRectangle;connectable=0;fillColor=none;top=0;left=0;bottom=0;right=0;align=left;spacingLeft=6;overflow=hidden;" parent="192" vertex="1">
                    <mxGeometry x="180" width="100" height="30" as="geometry">
                        <mxRectangle width="100" height="30" as="alternateBounds"/>
                    </mxGeometry>
                </mxCell>
                <mxCell id="196" value="" style="shape=partialRectangle;collapsible=0;dropTarget=0;pointerEvents=0;fillColor=none;top=0;left=0;bottom=0;right=0;points=[[0,0.5],[1,0.5]];portConstraint=eastwest;" parent="187" vertex="1">
                    <mxGeometry y="100" width="280" height="30" as="geometry"/>
                </mxCell>
                <mxCell id="197" value="" style="shape=partialRectangle;connectable=0;fillColor=none;top=0;left=0;bottom=0;right=0;editable=1;overflow=hidden;" parent="196" vertex="1">
                    <mxGeometry width="30" height="30" as="geometry">
                        <mxRectangle width="30" height="30" as="alternateBounds"/>
                    </mxGeometry>
                </mxCell>
                <mxCell id="198" value="" style="shape=partialRectangle;connectable=0;fillColor=none;top=0;left=0;bottom=0;right=0;align=left;spacingLeft=6;overflow=hidden;" parent="196" vertex="1">
                    <mxGeometry x="30" width="150" height="30" as="geometry">
                        <mxRectangle width="150" height="30" as="alternateBounds"/>
                    </mxGeometry>
                </mxCell>
                <mxCell id="199" value="" style="shape=partialRectangle;connectable=0;fillColor=none;top=0;left=0;bottom=0;right=0;align=left;spacingLeft=6;overflow=hidden;" parent="196" vertex="1">
                    <mxGeometry x="180" width="100" height="30" as="geometry">
                        <mxRectangle width="100" height="30" as="alternateBounds"/>
                    </mxGeometry>
                </mxCell>
                <mxCell id="200" value="" style="shape=partialRectangle;collapsible=0;dropTarget=0;pointerEvents=0;fillColor=none;top=0;left=0;bottom=0;right=0;points=[[0,0.5],[1,0.5]];portConstraint=eastwest;" parent="187" vertex="1">
                    <mxGeometry y="130" width="280" height="30" as="geometry"/>
                </mxCell>
                <mxCell id="201" value="" style="shape=partialRectangle;connectable=0;fillColor=none;top=0;left=0;bottom=0;right=0;editable=1;overflow=hidden;" parent="200" vertex="1">
                    <mxGeometry width="30" height="30" as="geometry">
                        <mxRectangle width="30" height="30" as="alternateBounds"/>
                    </mxGeometry>
                </mxCell>
                <mxCell id="202" value="" style="shape=partialRectangle;connectable=0;fillColor=none;top=0;left=0;bottom=0;right=0;align=left;spacingLeft=6;overflow=hidden;" parent="200" vertex="1">
                    <mxGeometry x="30" width="150" height="30" as="geometry">
                        <mxRectangle width="150" height="30" as="alternateBounds"/>
                    </mxGeometry>
                </mxCell>
                <mxCell id="203" value="" style="shape=partialRectangle;connectable=0;fillColor=none;top=0;left=0;bottom=0;right=0;align=left;spacingLeft=6;overflow=hidden;" parent="200" vertex="1">
                    <mxGeometry x="180" width="100" height="30" as="geometry">
                        <mxRectangle width="100" height="30" as="alternateBounds"/>
                    </mxGeometry>
                </mxCell>
                <mxCell id="204" style="shape=partialRectangle;collapsible=0;dropTarget=0;pointerEvents=0;fillColor=none;top=0;left=0;bottom=0;right=0;points=[[0,0.5],[1,0.5]];portConstraint=eastwest;" parent="187" vertex="1">
                    <mxGeometry y="160" width="280" height="30" as="geometry"/>
                </mxCell>
                <mxCell id="205" style="shape=partialRectangle;connectable=0;fillColor=none;top=0;left=0;bottom=0;right=0;editable=1;overflow=hidden;" parent="204" vertex="1">
                    <mxGeometry width="30" height="30" as="geometry">
                        <mxRectangle width="30" height="30" as="alternateBounds"/>
                    </mxGeometry>
                </mxCell>
                <mxCell id="206" value="" style="shape=partialRectangle;connectable=0;fillColor=none;top=0;left=0;bottom=0;right=0;align=left;spacingLeft=6;overflow=hidden;" parent="204" vertex="1">
                    <mxGeometry x="30" width="150" height="30" as="geometry">
                        <mxRectangle width="150" height="30" as="alternateBounds"/>
                    </mxGeometry>
                </mxCell>
                <mxCell id="207" style="shape=partialRectangle;connectable=0;fillColor=none;top=0;left=0;bottom=0;right=0;align=left;spacingLeft=6;overflow=hidden;" parent="204" vertex="1">
                    <mxGeometry x="180" width="100" height="30" as="geometry">
                        <mxRectangle width="100" height="30" as="alternateBounds"/>
                    </mxGeometry>
                </mxCell>
                <mxCell id="208" style="shape=partialRectangle;collapsible=0;dropTarget=0;pointerEvents=0;fillColor=none;top=0;left=0;bottom=0;right=0;points=[[0,0.5],[1,0.5]];portConstraint=eastwest;" parent="187" vertex="1">
                    <mxGeometry y="190" width="280" height="40" as="geometry"/>
                </mxCell>
                <mxCell id="209" style="shape=partialRectangle;connectable=0;fillColor=none;top=0;left=0;bottom=0;right=0;editable=1;overflow=hidden;" parent="208" vertex="1">
                    <mxGeometry width="30" height="40" as="geometry">
                        <mxRectangle width="30" height="40" as="alternateBounds"/>
                    </mxGeometry>
                </mxCell>
                <mxCell id="210" value="" style="shape=partialRectangle;connectable=0;fillColor=none;top=0;left=0;bottom=0;right=0;align=left;spacingLeft=6;overflow=hidden;" parent="208" vertex="1">
                    <mxGeometry x="30" width="150" height="40" as="geometry">
                        <mxRectangle width="150" height="40" as="alternateBounds"/>
                    </mxGeometry>
                </mxCell>
                <mxCell id="211" style="shape=partialRectangle;connectable=0;fillColor=none;top=0;left=0;bottom=0;right=0;align=left;spacingLeft=6;overflow=hidden;" parent="208" vertex="1">
                    <mxGeometry x="180" width="100" height="40" as="geometry">
                        <mxRectangle width="100" height="40" as="alternateBounds"/>
                    </mxGeometry>
                </mxCell>
                <mxCell id="212" style="shape=partialRectangle;collapsible=0;dropTarget=0;pointerEvents=0;fillColor=none;top=0;left=0;bottom=0;right=0;points=[[0,0.5],[1,0.5]];portConstraint=eastwest;" parent="187" vertex="1">
                    <mxGeometry y="230" width="280" height="30" as="geometry"/>
                </mxCell>
                <mxCell id="213" style="shape=partialRectangle;connectable=0;fillColor=none;top=0;left=0;bottom=0;right=0;editable=1;overflow=hidden;" parent="212" vertex="1">
                    <mxGeometry width="30" height="30" as="geometry">
                        <mxRectangle width="30" height="30" as="alternateBounds"/>
                    </mxGeometry>
                </mxCell>
                <mxCell id="214" style="shape=partialRectangle;connectable=0;fillColor=none;top=0;left=0;bottom=0;right=0;align=left;spacingLeft=6;overflow=hidden;" parent="212" vertex="1">
                    <mxGeometry x="30" width="150" height="30" as="geometry">
                        <mxRectangle width="150" height="30" as="alternateBounds"/>
                    </mxGeometry>
                </mxCell>
                <mxCell id="215" style="shape=partialRectangle;connectable=0;fillColor=none;top=0;left=0;bottom=0;right=0;align=left;spacingLeft=6;overflow=hidden;" parent="212" vertex="1">
                    <mxGeometry x="180" width="100" height="30" as="geometry">
                        <mxRectangle width="100" height="30" as="alternateBounds"/>
                    </mxGeometry>
                </mxCell>
                <mxCell id="216" style="edgeStyle=none;html=1;exitX=0;exitY=0.5;exitDx=0;exitDy=0;entryX=1;entryY=0.5;entryDx=0;entryDy=0;" parent="1" source="188" target="41" edge="1">
                    <mxGeometry relative="1" as="geometry">
                        <Array as="points">
                            <mxPoint x="1000" y="105"/>
                            <mxPoint x="1000" y="205"/>
                        </Array>
                    </mxGeometry>
                </mxCell>
                <mxCell id="217" style="edgeStyle=none;html=1;exitX=0;exitY=0.5;exitDx=0;exitDy=0;entryX=1.001;entryY=0.634;entryDx=0;entryDy=0;entryPerimeter=0;" parent="1" source="45" target="91" edge="1">
                    <mxGeometry relative="1" as="geometry">
                        <Array as="points">
                            <mxPoint x="560" y="235"/>
                            <mxPoint x="560" y="505"/>
                        </Array>
                    </mxGeometry>
                </mxCell>
                <mxCell id="228" value="&lt;h1&gt;Features&lt;/h1&gt;&lt;div&gt;* User Profile Section&lt;/div&gt;&lt;div&gt;* Games Section&lt;/div&gt;&lt;div&gt;* Reviews Section&lt;/div&gt;&lt;div&gt;* Chat rooms (via Socket.io)&lt;/div&gt;&lt;div&gt;&lt;br&gt;&lt;/div&gt;&lt;div&gt;&lt;br&gt;&lt;/div&gt;&lt;div&gt;* Users will be able to Add games they have&lt;/div&gt;&lt;div&gt;* Create Wishlists of games they do not have but want&lt;/div&gt;&lt;div&gt;* Chat about specific games&lt;/div&gt;&lt;div&gt;* Post Reviews on their games&lt;/div&gt;&lt;div&gt;* Read reviews of other games&lt;/div&gt;&lt;div&gt;* Search game libraries (Sort by popularity/review scores)&lt;/div&gt;&lt;div&gt;* See upcoming game releases&lt;/div&gt;&lt;div&gt;* Browse Games by category(genre) or platform&lt;/div&gt;" style="text;html=1;strokeColor=none;fillColor=none;spacing=5;spacingTop=-20;whiteSpace=wrap;overflow=hidden;rounded=0;" parent="1" vertex="1">
                    <mxGeometry x="-609" y="-800" width="410" height="250" as="geometry"/>
                </mxCell>
                <mxCell id="229" value="&lt;h1&gt;MVP&lt;/h1&gt;&lt;div&gt;#1 Prioity: User Profile Section&lt;/div&gt;&lt;div&gt;#1&amp;nbsp;Prioity:&amp;nbsp;Reviews Section&lt;br&gt;&lt;/div&gt;&lt;div&gt;#1&amp;nbsp;Prioity:&amp;nbsp;Games Section&lt;/div&gt;&lt;div&gt;&lt;br&gt;&lt;/div&gt;&lt;div&gt;#2 Priority: Chat rooms (via Socket.io)&lt;/div&gt;&lt;div&gt;#2 Priority: Create Wishlists of games they do not have but want&lt;br&gt;&lt;/div&gt;&lt;div&gt;&lt;br&gt;&lt;/div&gt;&lt;div&gt;Lower Priority:&lt;/div&gt;&lt;div&gt;* Users will be able to Add games they have&lt;/div&gt;&lt;div&gt;* Chat about specific games&lt;/div&gt;&lt;div&gt;* Post Reviews on their games&lt;/div&gt;&lt;div&gt;* Read reviews of other games&lt;/div&gt;&lt;div&gt;* Search game libraries (Sort by popularity/review scores)&lt;/div&gt;&lt;div&gt;* See upcoming game releases&lt;/div&gt;&lt;div&gt;* Browse Games by category(genre) or platform&lt;/div&gt;&lt;div&gt;&lt;br&gt;&lt;/div&gt;&lt;div&gt;* User polls (Examples: What games are you looking forward to playing? Or What game did you most enjoy recently?)&lt;/div&gt;&lt;div&gt;* Canyourunit:&amp;nbsp;https://www.systemrequirementslab.com/cyri&lt;/div&gt;&lt;div&gt;&lt;br&gt;&lt;/div&gt;&lt;div&gt;Integrate Steam API???&lt;/div&gt;&lt;div&gt;https://rapidapi.com/psimavel/api/steam2/&lt;br&gt;&lt;/div&gt;&lt;div&gt;&lt;br&gt;&lt;/div&gt;&lt;div&gt;https://rawg.io/&lt;br&gt;&lt;/div&gt;&lt;div&gt;https://rawg.io/apidocs&lt;br&gt;&lt;/div&gt;&lt;div&gt;&lt;br&gt;&lt;/div&gt;" style="text;html=1;strokeColor=none;fillColor=none;spacing=5;spacingTop=-20;whiteSpace=wrap;overflow=hidden;rounded=0;" parent="1" vertex="1">
                    <mxGeometry x="-599" y="-520" width="410" height="450" as="geometry"/>
                </mxCell>
                <mxCell id="230" value="&lt;h1&gt;User Story6&lt;/h1&gt;&lt;div&gt;I AM someone who has never played games&lt;/div&gt;&lt;div&gt;SO I WANT TO&amp;nbsp;&lt;/div&gt;&lt;div&gt;&lt;span&gt;SO I CAN&amp;nbsp;&lt;/span&gt;&lt;/div&gt;" style="text;html=1;strokeColor=none;fillColor=none;spacing=5;spacingTop=-20;whiteSpace=wrap;overflow=hidden;rounded=0;" parent="1" vertex="1">
                    <mxGeometry x="700" y="-930" width="400" height="120" as="geometry"/>
                </mxCell>
                <mxCell id="231" value="&lt;h1&gt;MVP Focus on reviews or wishlist&lt;/h1&gt;&lt;div&gt;Seed specific games - Dont allow users to create their own games&lt;/div&gt;&lt;div&gt;&lt;br&gt;&lt;/div&gt;&lt;div&gt;&lt;br&gt;&lt;/div&gt;&lt;div&gt;Googleanalytics could be a good outside&lt;/div&gt;&lt;div&gt;logging technologies&lt;/div&gt;&lt;div&gt;&lt;br&gt;&lt;/div&gt;&lt;div&gt;&lt;br&gt;&lt;/div&gt;" style="text;html=1;strokeColor=none;fillColor=none;spacing=5;spacingTop=-20;whiteSpace=wrap;overflow=hidden;rounded=0;" vertex="1" parent="1">
                    <mxGeometry x="150" y="-530" width="400" height="170" as="geometry"/>
                </mxCell>
            </root>
        </mxGraphModel>
    </diagram>
</mxfile>